<svg width="14" height="14" viewBox="0 0 14 14" fill="none" xmlns="http://www.w3.org/2000/svg">
<path d="M12 0C13.1046 0 14 0.895431 14 2V12C14 13.1046 13.1046 14 12 14H2C0.895431 14 4.83199e-08 13.1046 0 12V2C0 0.895431 0.895431 4.83192e-08 2 0H12ZM1.80371 6.5H3.06543C3.0242 6.65999 3 6.82714 3 7V10C3 11.1046 3.89543 12 5 12H9C10.1046 12 11 11.1046 11 10V7C11 6.82714 10.9758 6.65999 10.9346 6.5H12.1963L10.5 5.03027V3H9V3.73145L7 2L1.80371 6.5ZM7 7C8.10457 7 9 7.89543 9 9C9 9.2047 8.96827 9.40192 8.91113 9.58789C8.96807 9.71358 9 9.85304 9 10C9 10.5523 8.55228 11 8 11H6C5.44772 11 5 10.5523 5 10C5 9.93114 5.00628 9.86377 5.01953 9.79883C5.02992 9.74768 5.04559 9.69837 5.06348 9.65039C5.0702 9.63239 5.07627 9.61417 5.08398 9.59668C5.08516 9.59402 5.08669 9.59152 5.08789 9.58887C5.03063 9.40272 5 9.20493 5 9C5 7.89543 5.89543 7 7 7ZM7 4.5C7.36997 4.5 7.69227 4.70133 7.86523 5C7.95047 5.14718 8 5.31768 8 5.5C8 6.05228 7.55228 6.5 7 6.5C6.44772 6.5 6 6.05228 6 5.5C6 5.31768 6.04953 5.14718 6.13477 5C6.30773 4.70133 6.63003 4.5 7 4.5Z" fill="#3679FF"/>
</svg>
