<svg width="14" height="14" viewBox="0 0 14 14" fill="none" xmlns="http://www.w3.org/2000/svg">
<path d="M12 0C13.1046 0 14 0.895431 14 2V12C14 13.1046 13.1046 14 12 14H2C0.895431 14 4.83199e-08 13.1046 0 12V2C0 0.895431 0.895431 4.83192e-08 2 0H12ZM7 2.5C4.79086 2.5 3 4.29086 3 6.5C3 8.32907 4.22802 9.87012 5.9043 10.3467L7.15039 12.2002L8.24805 10.2998C9.84577 9.77535 11 8.27315 11 6.5C11 4.29086 9.20914 2.5 7 2.5ZM7 4.49902C8.10505 4.49902 9.00098 5.39495 9.00098 6.5C9.00098 7.60505 8.10505 8.50098 7 8.50098C5.89495 8.50098 4.99902 7.60505 4.99902 6.5C4.99902 5.39495 5.89495 4.49902 7 4.49902Z" fill="#3679FF"/>
</svg>
