<svg width="14" height="14" viewBox="0 0 14 14" fill="none" xmlns="http://www.w3.org/2000/svg">
<path d="M12 0C13.1046 0 14 0.895431 14 2V12C14 13.1046 13.1046 14 12 14H2C0.895431 14 4.83199e-08 13.1046 0 12V2C0 0.895431 0.895431 4.83192e-08 2 0H12ZM7 2C4.23858 2 2 4.23858 2 7C2 9.76142 4.23858 12 7 12C9.76142 12 12 9.76142 12 7C12 4.23858 9.76142 2 7 2ZM7 3.42871C7.19724 3.42871 7.35742 3.58889 7.35742 3.78613V7.71387H7.00879C7.00588 7.71394 7.00293 7.71484 7 7.71484C6.99706 7.71484 6.99414 7.71394 6.99121 7.71387H3.78613C3.58898 7.71387 3.42886 7.55454 3.42871 7.35742C3.42871 7.16018 3.58889 7 3.78613 7H6.64258V3.78613C6.64258 3.5889 6.80277 3.42873 7 3.42871Z" fill="black"/>
</svg>
