<svg width="14" height="14" viewBox="0 0 14 14" fill="none" xmlns="http://www.w3.org/2000/svg">
<path d="M12 0C13.1046 0 14 0.895431 14 2V12C14 13.1046 13.1046 14 12 14H2C0.895431 14 4.83199e-08 13.1046 0 12V2C0 0.895431 0.895431 4.83192e-08 2 0H12ZM4.7998 10.6006L7.22461 6.40039H2.375L4.7998 10.6006ZM6.5 10.5H11L8.87109 6.5L6.5 10.5ZM4.7998 3C4.02665 3.00005 3.40039 3.62722 3.40039 4.40039C3.4006 5.17338 4.02678 5.79975 4.7998 5.7998C5.57287 5.7998 6.19998 5.17341 6.2002 4.40039C6.2002 3.62719 5.573 3 4.7998 3ZM8.7998 3C8.02676 3.00018 7.40039 3.62731 7.40039 4.40039C7.4006 5.1733 8.02689 5.79962 8.7998 5.7998C9.57287 5.7998 10.2 5.17341 10.2002 4.40039C10.2002 3.62719 9.573 3 8.7998 3Z" fill="#3679FF"/>
</svg>
