<svg width="14" height="14" viewBox="0 0 14 14" fill="none" xmlns="http://www.w3.org/2000/svg">
<path d="M12 0C13.1046 0 14 0.895431 14 2V12C14 13.1046 13.1046 14 12 14H2C0.895431 14 4.83199e-08 13.1046 0 12V2C0 0.895431 0.895431 4.83192e-08 2 0H12ZM6 3.11328C5.80647 3.1585 5.62658 3.21792 5.45996 3.29004C5.01996 3.48337 4.68973 3.74674 4.46973 4.08008C4.24985 4.40662 4.1397 4.77321 4.13965 5.17969C4.13965 5.64631 4.26005 6.01981 4.5 6.2998C4.74667 6.5798 5.03988 6.78349 5.37988 6.91016C5.71988 7.03682 6.1571 7.16337 6.69043 7.29004C7.03674 7.36997 7.30988 7.44315 7.50977 7.50977C7.71643 7.57643 7.8831 7.66694 8.00977 7.78027C8.14312 7.88694 8.49045 8.07044 8.40039 8.58008C8.40004 8.80668 8.09975 9.09055 7.87988 9.23047C7.65993 9.36365 7.31997 9.42965 6.86035 9.42969C6.4471 9.42969 6.03337 9.36375 5.62012 9.23047C5.20678 9.09714 4.83125 8.57964 4.5498 8.20996L4.00977 9.81152C4.32306 10.1636 4.73675 10.4518 5.25 10.6768C5.49617 10.7786 5.74636 10.8555 6 10.9092V12H7.5V10.9463C7.87052 10.8816 8.20086 10.758 8.49023 10.5742C8.93681 10.2906 9.38356 9.9089 9.60352 9.42969C9.83002 8.9408 9.82032 8.47018 9.82031 8.07031C9.82031 7.60371 9.6968 7.23328 9.4502 6.95996C9.21025 6.68669 8.91998 6.48702 8.58008 6.36035C8.24008 6.23368 7.80286 6.10714 7.26953 5.98047C6.75636 5.86716 6.3734 5.75296 6.12012 5.63965C5.87345 5.51965 5.75 5.33961 5.75 5.09961C5.75012 4.85979 5.85709 4.66612 6.07031 4.51953C6.29032 4.37307 6.62707 4.2998 7.08008 4.2998C7.72654 4.29983 8.37307 4.48315 9.01953 4.84961L9.51953 3.62012C9.1997 3.42026 8.82676 3.26679 8.40039 3.16016C8.10523 3.08637 7.80473 3.03934 7.5 3.0166V2H6V3.11328Z" fill="black"/>
</svg>
