<svg width="14" height="14" viewBox="0 0 14 14" fill="none" xmlns="http://www.w3.org/2000/svg">
<path d="M12 0C13.1046 0 14 0.895431 14 2V12C14 13.1046 13.1046 14 12 14H2C0.895431 14 4.83199e-08 13.1046 0 12V2C0 0.895431 0.895431 4.83192e-08 2 0H12ZM3.5 8C2.67157 8 2 8.67157 2 9.5V11H4.25V9C4.25003 8.64418 4.32595 8.30641 4.45996 8H3.5ZM7 7C5.89543 7 5 7.89543 5 9V11H9V9C9 7.89543 8.10457 7 7 7ZM9.5 8C9.48398 8 9.46805 8.00145 9.45215 8.00195C9.70609 8.3721 9.85547 8.81994 9.85547 9.30273V11H12V9.5C12 8.67157 11.3284 8 10.5 8H9.5ZM4 4.5C3.17157 4.5 2.5 5.17157 2.5 6C2.5 6.82843 3.17157 7.5 4 7.5C4.65466 7.5 5.20932 7.07989 5.41406 6.49512C4.62569 6.45051 4 5.79954 4 5V4.5ZM10 5C10 5.79954 9.37431 6.45051 8.58594 6.49512C8.79068 7.07989 9.34534 7.5 10 7.5C10.8284 7.5 11.5 6.82843 11.5 6C11.5 5.17157 10.8284 4.5 10 4.5V5ZM7 3C6.17157 3 5.5 3.67157 5.5 4.5C5.5 5.32843 6.17157 6 7 6C7.82843 6 8.5 5.32843 8.5 4.5C8.5 3.67157 7.82843 3 7 3Z" fill="black"/>
</svg>
