<svg width="14" height="14" viewBox="0 0 14 14" fill="none" xmlns="http://www.w3.org/2000/svg">
<path d="M12 0C13.1046 0 14 0.895431 14 2V12C14 13.1046 13.1046 14 12 14H2C0.895431 14 4.83199e-08 13.1046 0 12V2C0 0.895431 0.895431 4.83192e-08 2 0H12ZM3.41699 6.83496H3.58301C2.7611 6.83496 2.09473 7.50134 2.09473 8.32324C2.09484 8.73607 2.26355 9.10925 2.53516 9.37891V10.583H2.56055C2.54452 10.6537 2.53519 10.7272 2.53516 10.8027C2.53516 11.3506 2.97951 11.7948 3.52734 11.7949H10.0312C10.5792 11.7949 11.0234 11.3507 11.0234 10.8027C11.0234 10.7272 11.015 10.6537 10.999 10.583H11.0234V9.37891C11.2954 9.10922 11.4647 8.73629 11.4648 8.32324C11.4648 7.50142 10.7984 6.83509 9.97656 6.83496H10.0312V5.18066H8.70898V6.83496H7.38574V5.18066H6.06348V6.83496H4.74023V5.18066H3.41699V6.83496ZM9.86621 7.38574C10.3836 7.38587 10.8037 7.80583 10.8037 8.32324C10.8035 8.84044 10.3834 9.25964 9.86621 9.25977H3.69336C3.17602 9.25977 2.75612 8.84052 2.75586 8.32324C2.75586 7.80575 3.17586 7.38574 3.69336 7.38574H9.86621ZM3.45312 3.18652C3.37306 3.29709 3.32151 3.42945 3.30957 3.57324L3.30664 3.58301H3.30957C3.3083 3.6011 3.30664 3.61928 3.30664 3.6377C3.30664 4.06387 3.65293 4.40918 4.0791 4.40918C4.50511 4.40898 4.85059 4.06375 4.85059 3.6377C4.85058 3.61928 4.84893 3.6011 4.84766 3.58301H4.85059L4.84668 3.57324C4.83473 3.42924 4.7833 3.29718 4.70312 3.18652L4.0791 2.09473L3.45312 3.18652ZM6.09961 3.18652C6.01964 3.29712 5.96797 3.42938 5.95605 3.57324L5.95312 3.58301H5.95605C5.95478 3.6011 5.95313 3.61928 5.95312 3.6377C5.95312 4.06387 6.29844 4.40918 6.72461 4.40918C7.15069 4.40907 7.49609 4.0638 7.49609 3.6377C7.49609 3.61928 7.49443 3.6011 7.49316 3.58301H7.49609L7.49219 3.57324C7.48024 3.42922 7.4288 3.29719 7.34863 3.18652L6.72461 2.09473L6.09961 3.18652ZM8.74512 3.18652C8.66515 3.29712 8.61348 3.42938 8.60156 3.57324L8.59863 3.58301H8.60156C8.60029 3.6011 8.59864 3.61928 8.59863 3.6377C8.59863 4.06387 8.94394 4.40918 9.37012 4.40918C9.79627 4.40916 10.1416 4.06385 10.1416 3.6377C10.1416 3.61928 10.1399 3.6011 10.1387 3.58301H10.1416L10.1377 3.57324C10.1258 3.42921 10.0743 3.2972 9.99414 3.18652L9.37012 2.09473L8.74512 3.18652Z" fill="black"/>
</svg>
