<svg width="14" height="14" viewBox="0 0 14 14" fill="none" xmlns="http://www.w3.org/2000/svg">
<path d="M12 0C13.1046 0 14 0.895431 14 2V12C14 13.1046 13.1046 14 12 14H2C0.895431 14 4.83199e-08 13.1046 0 12V2C0 0.895431 0.895431 4.83192e-08 2 0H12ZM4 2C3.44772 2 3 2.44772 3 3V11C3 11.5523 3.44772 12 4 12H10C10.5523 12 11 11.5523 11 11V5.7168C10.9999 5.46985 10.9084 5.23141 10.7432 5.04785L9.5 3.66699L8.29785 2.33105C8.10822 2.12037 7.83814 2.00001 7.55469 2H4ZM7.5 9C7.77614 9 8 9.22386 8 9.5C8 9.77614 7.77614 10 7.5 10H5C4.72386 10 4.5 9.77614 4.5 9.5C4.5 9.22386 4.72386 9 5 9H7.5ZM8.5 7.5C8.77614 7.5 9 7.72386 9 8C9 8.27614 8.77614 8.5 8.5 8.5H5C4.72386 8.5 4.5 8.27614 4.5 8C4.5 7.72386 4.72386 7.5 5 7.5H8.5ZM10 5.5H7.5V3L10 5.5Z" fill="black"/>
</svg>
