<svg width="14" height="14" viewBox="0 0 14 14" fill="none" xmlns="http://www.w3.org/2000/svg">
<path d="M12 0C13.1046 0 14 0.895431 14 2V12C14 13.1046 13.1046 14 12 14H2C0.895431 14 4.83199e-08 13.1046 0 12V2C0 0.895431 0.895431 4.83192e-08 2 0H12ZM6.5 3C4.567 3 3 4.567 3 6.5C3 8.433 4.567 10 6.5 10C7.01599 10 7.5053 9.887 7.94629 9.68652L9.70898 11.5127C10.0405 11.8557 10.5875 11.8646 10.9307 11.5332C11.2738 11.2017 11.2836 10.6547 10.9521 10.3115L9.29883 8.59961C9.73841 8.01457 10 7.28812 10 6.5C10 4.567 8.433 3 6.5 3ZM6.5 4.5332C7.58614 4.5332 8.4668 5.41386 8.4668 6.5C8.4668 7.58614 7.58614 8.4668 6.5 8.4668C5.41386 8.4668 4.5332 7.58614 4.5332 6.5C4.5332 5.41386 5.41386 4.5332 6.5 4.5332Z" fill="black"/>
</svg>
